# Blender 3.4.1
# www.blender.org
mtllib untitled.mtl
o Cylinder_0
v -0.360503 1.249474 3.116487
v -0.360503 1.249474 3.116487
v -0.360503 1.000408 4.629920
v -0.183000 0.897926 4.629920
v -0.183000 0.897926 4.629920
v 0.032703 1.022459 3.116487
v 0.032703 1.022459 3.116487
v 0.032703 1.022459 3.116487
v -0.183000 0.897926 4.629920
v -0.183000 0.692961 4.629920
v -0.183000 0.692961 4.629920
v 0.032703 0.568428 3.116487
v 0.032703 0.568428 3.116487
v 0.032703 0.568428 3.116487
v -0.183000 0.692961 4.629920
v -0.360503 0.590479 4.629920
v -0.360503 0.590479 4.629920
v -0.360503 0.341413 3.116487
v -0.360503 0.341413 3.116487
v -0.360503 0.341413 3.116487
v -0.360503 0.590479 4.629920
v -0.538006 0.692961 4.629920
v -0.538006 0.692961 4.629920
v -0.753708 0.568428 3.116487
v -0.183000 0.897926 4.629920
v -0.360503 0.590479 4.629920
v -0.183000 0.692961 4.629920
v -0.538006 0.897926 4.629920
v -0.538006 0.692961 4.629920
v -0.360503 1.000408 4.629920
v -0.360503 1.000408 4.629920
v -0.360503 1.000408 4.629920
v -0.360503 1.249474 3.116487
v -0.753708 1.022459 3.116487
v -0.753708 1.022459 3.116487
v -0.538006 0.897926 4.629920
v -0.753708 0.568428 3.116487
v -0.753708 0.568428 3.116487
v -0.538006 0.692961 4.629920
v -0.538006 0.897926 4.629920
v -0.538006 0.897926 4.629920
v -0.753708 1.022459 3.116487
v -0.360503 1.249474 3.116487
v -0.753708 0.568428 3.116487
v -0.753708 1.022459 3.116487
v 0.032703 0.568428 3.116487
v -0.360503 0.341413 3.116487
v 0.032703 1.022459 3.116487
vn -0.0000 -0.0000 1.0000
vn -0.0000 -0.0000 -1.0000
vn 0.4950 0.8574 0.1411
vn 0.9900 -0.0000 0.1411
vn 0.4950 -0.8574 0.1411
vn -0.4950 -0.8574 0.1411
vn -0.4950 0.8574 0.1411
vn -0.9900 -0.0000 0.1411
s 0
g Cylinder_0_brown.001
usemtl brown.001
f 25//1 26//1 27//1
f 28//1 29//1 26//1
f 25//1 30//1 28//1
f 25//1 28//1 26//1
f 43//2 44//2 45//2
f 46//2 47//2 44//2
f 43//2 48//2 46//2
f 43//2 46//2 44//2
s 1
f 2//3 3//3 5//3
s 0
f 1//3 4//3 6//3
f 7//4 9//4 10//4
f 8//4 11//4 12//4
f 14//5 15//5 17//5
s 1
f 13//5 16//5 18//5
f 19//6 21//6 22//6
s 0
f 20//6 23//6 24//6
s 1
f 32//7 33//7 35//7
s 0
f 31//7 34//7 36//7
f 37//8 39//8 40//8
f 38//8 41//8 42//8
o Cylinder_1
v 0.412007 -0.174517 5.156164
v -0.030854 0.836162 4.392811
v 0.765454 1.240166 5.206335
v 0.412007 -0.174517 5.156164
v 0.765454 1.240166 5.206335
v 0.857963 0.511364 5.809075
v -1.149797 0.390388 6.121418
v 0.061412 -0.187222 6.282402
v -0.571007 0.694951 6.644332
v -0.800595 1.480151 6.121418
v -1.149797 0.390388 6.121418
v -0.571007 0.694951 6.644332
v 0.317410 1.258615 6.428001
v -0.800595 1.480151 6.121418
v -0.571007 0.694951 6.644332
v 0.061412 -0.187222 6.282402
v 0.317410 1.258615 6.428001
v -0.571007 0.694951 6.644332
v 0.061412 -0.187222 6.282402
v 0.857963 0.511364 5.809075
v 0.317410 1.258615 6.428001
v 0.765454 1.240166 5.206335
v 0.317410 1.258615 6.428001
v 0.857963 0.511364 5.809075
v -0.577136 1.778025 5.491534
v -0.800595 1.480151 6.121418
v 0.317410 1.258615 6.428001
v -1.358666 0.694951 5.369869
v -1.149797 0.390388 6.121418
v -0.800595 1.480151 6.121418
v -0.706232 -0.328440 5.206335
v 0.061412 -0.187222 6.282402
v -1.149797 0.390388 6.121418
v 0.412007 -0.174517 5.156164
v 0.857963 0.511364 5.809075
v 0.061412 -0.187222 6.282402
v 0.765454 1.240166 5.206335
v -0.577136 1.778025 5.491534
v 0.317410 1.258615 6.428001
v 0.765454 1.240166 5.206335
v -0.523999 1.614476 4.855778
v -0.577136 1.778025 5.491534
v -0.577136 1.778025 5.491534
v -1.358666 0.694951 5.369869
v -0.800595 1.480151 6.121418
v -0.577136 1.778025 5.491534
v -0.523999 1.614476 4.855778
v -1.358666 0.694951 5.369869
v -1.358666 0.694951 5.369869
v -0.706232 -0.328440 5.206335
v -1.149797 0.390388 6.121418
v -0.706232 -0.328440 5.206335
v 0.412007 -0.174517 5.156164
v 0.061412 -0.187222 6.282402
v -0.030854 0.836162 4.392811
v -0.523999 1.614476 4.855778
v 0.765454 1.240166 5.206335
v -0.030854 0.836162 4.392811
v -0.594942 0.426332 4.505259
v -0.523999 1.614476 4.855778
v -0.594942 0.426332 4.505259
v -1.358666 0.694951 5.369869
v -0.523999 1.614476 4.855778
v -0.594942 0.426332 4.505259
v -0.706232 -0.328440 5.206335
v -1.358666 0.694951 5.369869
v -0.594942 0.426332 4.505259
v 0.412007 -0.174517 5.156164
v -0.706232 -0.328440 5.206335
v -0.594942 0.426332 4.505259
v -0.030854 0.836162 4.392811
v 0.412007 -0.174517 5.156164
vn 0.7443 -0.1630 -0.6476
vn 0.8960 -0.2100 -0.3914
vn -0.3681 -0.5664 0.7373
vn -0.7162 0.2295 0.6591
vn -0.1272 0.5238 0.8423
vn 0.3235 -0.1513 0.9341
vn 0.6175 -0.1863 0.7642
vn 0.8736 0.3712 0.3148
vn 0.0558 0.8948 0.4430
vn -0.8877 0.2845 0.3620
vn -0.4359 -0.7982 0.4157
vn 0.7129 -0.6676 0.2144
vn 0.3924 0.9105 0.1302
vn 0.3248 0.9222 -0.2101
vn -0.8103 0.5859 -0.0104
vn -0.7800 0.5872 -0.2162
vn -0.8420 -0.5393 0.0155
vn 0.1377 -0.9900 0.0317
vn 0.3689 0.6366 -0.6772
vn -0.3808 0.2825 -0.8805
vn -0.6884 0.2427 -0.6835
vn -0.7469 -0.3901 -0.5385
vn 0.0616 -0.6841 -0.7268
vn 0.2179 -0.5256 -0.8223
s 1
g Cylinder_1_green.001
usemtl green.001
f 49//9 50//9 51//9
s 0
f 52//10 53//10 54//10
f 55//11 56//11 57//11
f 58//12 59//12 60//12
s 1
f 61//13 62//13 63//13
s 0
f 64//14 65//14 66//14
f 67//15 68//15 69//15
s 1
f 70//16 71//16 72//16
s 0
f 73//17 74//17 75//17
f 76//18 77//18 78//18
f 79//19 80//19 81//19
f 82//20 83//20 84//20
f 85//21 86//21 87//21
f 88//22 89//22 90//22
f 91//23 92//23 93//23
f 94//24 95//24 96//24
f 97//25 98//25 99//25
s 1
f 100//26 101//26 102//26
s 0
f 103//27 104//27 105//27
f 106//28 107//28 108//28
f 109//29 110//29 111//29
f 112//30 113//30 114//30
f 115//31 116//31 117//31
f 118//32 119//32 120//32
